<?xml version="1.0" encoding="utf-8"?>
<!-- Generator: Adobe Illustrator 23.0.3, SVG Export Plug-In . SVG Version: 6.00 Build 0)  -->
<svg version="1.1" id="Layer_1" xmlns="http://www.w3.org/2000/svg" xmlns:xlink="http://www.w3.org/1999/xlink" x="0px" y="0px"
	 viewBox="0 0 24 24" style="enable-background:new 0 0 24 24;" xml:space="preserve">
<style type="text/css">
	.st0{fill:url(#SVGID_1_);}
	.st1{fill:none;stroke:#FFFFFF;stroke-width:0.75;stroke-miterlimit:10;}
	.st2{fill:url(#SVGID_2_);}
	.st3{fill:url(#SVGID_3_);}
	.st4{fill:url(#SVGID_4_);}
	.st5{fill:url(#SVGID_5_);}
	.st6{fill:url(#SVGID_6_);}
	.st7{fill:url(#SVGID_7_);}
	.st8{fill:url(#SVGID_8_);}
	.st9{fill:url(#SVGID_9_);}
	.st10{fill:url(#SVGID_10_);}
	.st11{fill:url(#SVGID_11_);}
	.st12{fill:url(#SVGID_12_);}
	.st13{fill:url(#SVGID_13_);}
	.st14{fill:#FFFFFF;}
	.st15{fill:url(#SVGID_14_);}
	.st16{fill:url(#SVGID_15_);}
	.st17{fill:url(#SVGID_16_);}
	.st18{fill:url(#SVGID_17_);}
	.st19{fill:url(#SVGID_18_);}
	.st20{fill:url(#SVGID_19_);}
	.st21{fill:url(#SVGID_20_);}
	.st22{fill:url(#SVGID_21_);}
	.st23{fill:url(#SVGID_22_);}
	.st24{fill:url(#SVGID_23_);}
	.st25{fill:url(#SVGID_24_);}
	.st26{fill:url(#SVGID_25_);}
	.st27{fill:url(#SVGID_26_);}
	.st28{fill:url(#SVGID_27_);}
	.st29{fill:url(#SVGID_28_);}
	.st30{fill:url(#SVGID_29_);}
	.st31{fill:url(#SVGID_30_);}
	.st32{fill:url(#SVGID_31_);}
	.st33{fill:url(#SVGID_32_);}
	.st34{fill:url(#SVGID_33_);}
	.st35{fill:url(#SVGID_34_);}
	.st36{fill:url(#SVGID_35_);}
	.st37{fill:url(#SVGID_36_);}
	.st38{fill:url(#SVGID_37_);}
	.st39{fill:url(#SVGID_38_);}
	.st40{fill:url(#SVGID_39_);}
	.st41{fill:url(#SVGID_40_);}
	.st42{fill:url(#XMLID_2_);}
	.st43{fill:url(#XMLID_3_);}
	.st44{fill:url(#SVGID_41_);}
	.st45{fill:url(#SVGID_42_);}
	.st46{fill:url(#SVGID_43_);}
	.st47{fill:url(#SVGID_44_);}
	.st48{fill:url(#SVGID_45_);}
	.st49{fill:url(#SVGID_46_);}
	.st50{fill:url(#SVGID_47_);}
	.st51{fill:url(#SVGID_48_);}
	.st52{fill:url(#SVGID_49_);}
</style>
<g>
	<linearGradient id="SVGID_1_" gradientUnits="userSpaceOnUse" x1="0.5793" y1="12" x2="23.4207" y2="12">
		<stop  offset="0" style="stop-color:#E7316C"/>
		<stop  offset="1" style="stop-color:#FFA614"/>
	</linearGradient>
	<circle class="st0" cx="12" cy="12" r="11.4"/>
	<circle class="st14" cx="12" cy="12" r="10.1"/>
	
		<linearGradient id="SVGID_2_" gradientUnits="userSpaceOnUse" x1="-7.0995" y1="-95.1052" x2="9.9454" y2="-95.1052" gradientTransform="matrix(0.7071 0.7071 -0.7071 0.7071 -60.4477 74.0514)">
		<stop  offset="0.3048" style="stop-color:#B7BDD3"/>
		<stop  offset="1" style="stop-color:#FFFFFF"/>
	</linearGradient>
	<circle class="st2" cx="12" cy="12" r="9.4"/>
</g>
<g>
	<linearGradient id="SVGID_3_" gradientUnits="userSpaceOnUse" x1="8.8848" y1="12.2759" x2="15.1195" y2="12.2759">
		<stop  offset="0" style="stop-color:#E7316C"/>
		<stop  offset="1" style="stop-color:#FFA614"/>
	</linearGradient>
	<path class="st3" d="M12,9.2c-1.7,0-3.1,1.4-3.1,3.1c0,1.7,1.4,3.1,3.1,3.1c1.7,0,3.1-1.4,3.1-3.1C15.1,10.6,13.7,9.2,12,9.2
		L12,9.2z M12,14.3c-1.1,0-2-0.9-2-2s0.9-2,2-2s2,0.9,2,2C14,13.4,13.1,14.3,12,14.3z"/>
	<linearGradient id="SVGID_4_" gradientUnits="userSpaceOnUse" x1="5.9253" y1="12.2784" x2="18.0747" y2="12.2784">
		<stop  offset="0" style="stop-color:#E7316C"/>
		<stop  offset="1" style="stop-color:#FFA614"/>
	</linearGradient>
	<path class="st4" d="M14.5,6.2c-1.1-0.1-3.9,0-5,0c-1,0-1.9,0.3-2.5,1c-1.2,1.2-1,2.7-1,5.1c0,2.4-0.1,3.9,1,5.1
		c1.2,1.2,2.8,1,5.1,1c2.3,0,3.1,0,4-0.3c1.1-0.4,2-1.4,2.1-3.2c0.1-1.1,0-3.9,0-5C17.9,7.6,16.8,6.3,14.5,6.2L14.5,6.2z M16.3,16.6
		c-0.8,0.8-1.8,0.7-4.3,0.7c-2.5,0-3.5,0-4.3-0.7C6.8,15.7,7,14.3,7,12.3c0-2.8-0.3-4.8,2.5-5c0.6,0,0.8,0,2.5,0l0,0
		c2.7,0,4.8-0.3,4.9,2.5c0,0.6,0,0.8,0,2.5C17,14.8,17,15.8,16.3,16.6L16.3,16.6z"/>
	<linearGradient id="SVGID_5_" gradientUnits="userSpaceOnUse" x1="14.5146" y1="9.0355" x2="15.9715" y2="9.0355">
		<stop  offset="0" style="stop-color:#E7316C"/>
		<stop  offset="1" style="stop-color:#FFA614"/>
	</linearGradient>
	<circle class="st5" cx="15.2" cy="9" r="0.7"/>
</g>
</svg>
