<?xml version="1.0" encoding="utf-8"?>
<!-- Generator: Adobe Illustrator 23.0.3, SVG Export Plug-In . SVG Version: 6.00 Build 0)  -->
<svg version="1.1" id="Layer_1" xmlns="http://www.w3.org/2000/svg" xmlns:xlink="http://www.w3.org/1999/xlink" x="0px" y="0px"
	 viewBox="0 0 24 24" style="enable-background:new 0 0 24 24;" xml:space="preserve">
<style type="text/css">
	.st0{fill:url(#SVGID_1_);}
	.st1{fill:none;stroke:#FFFFFF;stroke-width:0.75;stroke-miterlimit:10;}
	.st2{fill:url(#SVGID_2_);}
	.st3{fill:url(#SVGID_3_);}
	.st4{fill:url(#SVGID_4_);}
	.st5{fill:url(#SVGID_5_);}
	.st6{fill:url(#SVGID_6_);}
	.st7{fill:url(#SVGID_7_);}
	.st8{fill:url(#SVGID_8_);}
	.st9{fill:url(#SVGID_9_);}
	.st10{fill:url(#SVGID_10_);}
	.st11{fill:url(#SVGID_11_);}
	.st12{fill:url(#SVGID_12_);}
	.st13{fill:url(#SVGID_13_);}
	.st14{fill:#FFFFFF;}
	.st15{fill:url(#SVGID_14_);}
	.st16{fill:url(#SVGID_15_);}
	.st17{fill:url(#SVGID_16_);}
	.st18{fill:url(#SVGID_17_);}
	.st19{fill:url(#SVGID_18_);}
	.st20{fill:url(#SVGID_19_);}
	.st21{fill:url(#SVGID_20_);}
	.st22{fill:url(#SVGID_21_);}
	.st23{fill:url(#SVGID_22_);}
	.st24{fill:url(#SVGID_23_);}
	.st25{fill:url(#SVGID_24_);}
	.st26{fill:url(#SVGID_25_);}
	.st27{fill:url(#SVGID_26_);}
	.st28{fill:url(#SVGID_27_);}
	.st29{fill:url(#SVGID_28_);}
	.st30{fill:url(#SVGID_29_);}
	.st31{fill:url(#SVGID_30_);}
	.st32{fill:url(#SVGID_31_);}
	.st33{fill:url(#SVGID_32_);}
	.st34{fill:url(#SVGID_33_);}
	.st35{fill:url(#SVGID_34_);}
	.st36{fill:url(#SVGID_35_);}
	.st37{fill:url(#SVGID_36_);}
	.st38{fill:url(#SVGID_37_);}
	.st39{fill:url(#SVGID_38_);}
	.st40{fill:url(#SVGID_39_);}
	.st41{fill:url(#SVGID_40_);}
	.st42{fill:url(#XMLID_2_);}
	.st43{fill:url(#XMLID_3_);}
	.st44{fill:url(#SVGID_41_);}
	.st45{fill:url(#SVGID_42_);}
	.st46{fill:url(#SVGID_43_);}
	.st47{fill:url(#SVGID_44_);}
	.st48{fill:url(#SVGID_45_);}
	.st49{fill:url(#SVGID_46_);}
	.st50{fill:url(#SVGID_47_);}
	.st51{fill:url(#SVGID_48_);}
	.st52{fill:url(#SVGID_49_);}
</style>
<g>
	<linearGradient id="SVGID_1_" gradientUnits="userSpaceOnUse" x1="0.5793" y1="12" x2="23.4207" y2="12">
		<stop  offset="0" style="stop-color:#0455C8"/>
		<stop  offset="1" style="stop-color:#00B6F7"/>
	</linearGradient>
	<circle class="st0" cx="12" cy="12" r="11.4"/>
	<circle class="st14" cx="12" cy="12" r="10.1"/>
	
		<linearGradient id="SVGID_2_" gradientUnits="userSpaceOnUse" x1="-17.754" y1="-120.8273" x2="-0.709" y2="-120.8273" gradientTransform="matrix(0.7071 0.7071 -0.7071 0.7071 -71.1021 99.7734)">
		<stop  offset="0.3048" style="stop-color:#B7BDD3"/>
		<stop  offset="1" style="stop-color:#FFFFFF"/>
	</linearGradient>
	<circle class="st2" cx="12" cy="12" r="9.4"/>
</g>
<linearGradient id="SVGID_3_" gradientUnits="userSpaceOnUse" x1="6.0377" y1="12.2784" x2="17.9623" y2="12.2784">
	<stop  offset="0" style="stop-color:#0455C8"/>
	<stop  offset="1" style="stop-color:#00B6F7"/>
</linearGradient>
<path class="st3" d="M18,8.6C17.5,8.8,17,8.9,16.6,9c0.5-0.3,0.9-0.8,1.1-1.4c-0.5,0.3-1,0.5-1.6,0.6c-0.4-0.5-1.1-0.8-1.8-0.8
	c-1.4,0-2.4,1.1-2.4,2.4c0,0.2,0,0.4,0.1,0.6c-2-0.1-3.8-1.1-5-2.6C6.7,8.2,6.5,8.7,6.5,9.1c0,0.8,0.4,1.6,1.1,2
	c-0.4,0-0.8-0.1-1.1-0.3c0,0,0,0,0,0c0,1.2,0.8,2.2,2,2.4c-0.2,0.1-0.4,0.1-0.6,0.1c-0.2,0-0.3,0-0.5,0c0.3,1,1.2,1.7,2.3,1.7
	c-0.8,0.7-1.9,1-3,1c-0.2,0-0.4,0-0.6,0c1.1,0.7,2.4,1.1,3.8,1.1c4.5,0,7-3.7,7-7c0-0.1,0-0.2,0-0.3C17.2,9.5,17.6,9.1,18,8.6z"/>
</svg>
